<?xml version="1.0" encoding="UTF-8"?>
<mxfile host="app.diagrams.net" modified="17-add-cdn-for-frontend" agent="PlantUML Converter" version="1.0" etag="plantuml-diagram" type="device">
  <diagram id="plantuml-17-add-cdn-for-frontend" name="17-add-cdn-for-frontend">
    <mxGraphModel dx="1422" dy="794" grid="1" gridSize="10" guides="1" tooltips="1" connect="1" arrows="1" fold="1" page="1" pageScale="1" pageWidth="827" pageHeight="1169" math="0" shadow="0">
      <root>
        <mxCell id="0" />
        <mxCell id="1" parent="0" />
        <mxCell id="plantuml-container" value="" style="shape=image;html=1;verticalAlign=top;verticalLabelPosition=bottom;labelBackgroundColor=#ffffff;imageAspect=0;aspect=fixed;image=data:image/svg+xml,PHN2ZyB4bWxucz0iaHR0cDovL3d3dy53My5vcmcvMjAwMC9zdmciIHdpZHRoPSI0MDAiIGhlaWdodD0iMzAwIiB2aWV3Qm94PSIwIDAgNDAwIDMwMCI+CiAgPHJlY3Qgd2lkdGg9IjQwMCIgaGVpZ2h0PSIzMDAiIGZpbGw9IiNmOGY5ZmEiIHN0cm9rZT0iI2RlZTJlNiIvPgogIDx0ZXh0IHg9IjIwMCIgeT0iMTUwIiB0ZXh0LWFuY2hvcj0ibWlkZGxlIiBmb250LWZhbWlseT0iQXJpYWwiIGZvbnQtc2l6ZT0iMTQiIGZpbGw9IiM2Yzc1N2QiPgogICAgRGlhZ3JhbWEgUGxhbnRVTUw6IDE3LWFkZC1jZG4tZm9yLWZyb250ZW5kCiAgPC90ZXh0PgogIDx0ZXh0IHg9IjIwMCIgeT0iMTcwIiB0ZXh0LWFuY2hvcj0ibWlkZGxlIiBmb250LWZhbWlseT0iQXJpYWwiIGZvbnQtc2l6ZT0iMTIiIGZpbGw9IiM2Yzc1N2QiPgogICAgKFNWRyBuw6NvIGRpc3BvbsOtdmVsIC0gdXNlIG8gY8OzZGlnbyBQbGFudFVNTCBpbmNvcnBvcmFkbykKICA8L3RleHQ+Cjwvc3ZnPg==;plantuml=QHN0YXJ0dW1sCmxlZnQgdG8gcmlnaHQgZGlyZWN0aW9uCiFpbmNsdWRlIGh0dHBzOi8vcmF3LmdpdGh1YnVzZXJjb250ZW50LmNvbS9wbGFudHVtbC1zdGRsaWIvQzQtUGxhbnRVTUwvbWFzdGVyL0M0X0NvbnRhaW5lci5wdW1sCnNraW5wYXJhbSBub2Rlc2VwIDEwCnNraW5wYXJhbSByYW5rc2VwIDEwCgpUSVRMRSBDRE4g4oaSIEZyb250ZW5kIEFwcGxpY2F0aW9uCgpQZXJzb24odXNlciwgIlVzZXIiLCAiQWNjZXNzZXMgdGhlIGFwcGxpY2F0aW9uIHZpYSB3ZWIgYnJvd3NlciIpCgpDb250YWluZXIoY2RuLCAiQ0ROIiwgIkNsb3VkRnJvbnQvQWthbWFpIiwgIlNlcnZlcyBzdGF0aWMgZnJvbnRlbmQgYXNzZXRzIGF0IGVkZ2UiKQoKU3lzdGVtX0JvdW5kYXJ5KHdlYl9zeXN0ZW0sICJXZWIgQXBwbGljYXRpb24gU3lzdGVtIikgewogIENvbnRhaW5lcihmcm9udGVuZCwgIkZyb250ZW5kIEFwcGxpY2F0aW9uIiwgIlJlYWN0LCBKYXZhU2NyaXB0IiwgIlNpbmdsZeKAkHBhZ2UgYXBwIGxvYWRlZCBpbiB0aGUgYnJvd3NlciIpCn0KClJlbCh1c2VyLCBjZG4sICJSZXF1ZXN0cyBzdGF0aWMgYXNzZXRzIiwgIkhUVFBTIikKUmVsKGNkbiwgZnJvbnRlbmQsICJEZWxpdmVycyBIVE1ML0NTUy9KUyIsICJIVFRQUyIpCkBlbmR1bWwK;" vertex="1" parent="1">
          <mxGeometry x="40" y="40" width="400" height="300" as="geometry" />
        </mxCell>
      </root>
    </mxGraphModel>
  </diagram>
</mxfile>